<?xml version="1.0" standalone="no"?>
<!DOCTYPE svg PUBLIC "-//W3C//DTD SVG 20010904//EN"
 "http://www.w3.org/TR/2001/REC-SVG-20010904/DTD/svg10.dtd">
<svg version="1.0" xmlns="http://www.w3.org/2000/svg"
 width="6250.000000pt" height="6250.000000pt" viewBox="0 0 6250.000000 6250.000000"
 preserveAspectRatio="xMidYMid meet">

<g transform="translate(0.000000,6250.000000) scale(0.100000,-0.100000)"
fill="#000000" stroke="none">
<path d="M30688 54689 c-217 -5 -299 -11 -335 -23 -78 -25 -273 -44 -519 -50
-226 -5 -234 -6 -325 -37 -78 -26 -122 -33 -264 -44 -145 -11 -180 -16 -234
-40 -54 -22 -89 -29 -205 -37 -96 -7 -154 -16 -181 -28 -68 -31 -106 -39 -222
-49 -65 -5 -123 -15 -140 -25 -68 -37 -96 -46 -180 -54 -68 -7 -107 -17 -154
-40 -45 -21 -90 -34 -151 -41 -66 -8 -100 -18 -143 -42 -43 -24 -75 -34 -135
-40 -43 -4 -92 -16 -110 -26 -18 -10 -42 -23 -54 -30 -12 -7 -56 -17 -97 -24
-50 -7 -88 -20 -116 -39 -28 -18 -67 -31 -117 -39 -50 -8 -89 -22 -118 -40
-26 -17 -69 -33 -106 -39 -39 -7 -81 -22 -108 -40 -30 -20 -62 -31 -104 -36
-46 -5 -68 -14 -93 -35 -21 -19 -52 -33 -92 -41 -33 -6 -71 -19 -85 -29 -44
-31 -84 -48 -130 -56 -27 -5 -58 -19 -78 -36 -32 -28 -42 -32 -113 -44 -21 -3
-47 -17 -64 -35 -19 -20 -42 -31 -72 -36 -25 -4 -65 -21 -93 -40 -27 -18 -70
-39 -97 -45 -57 -14 -95 -32 -113 -53 -7 -9 -38 -23 -69 -32 -31 -9 -67 -26
-81 -39 -34 -31 -64 -45 -94 -45 -13 0 -38 -12 -55 -26 -17 -14 -54 -35 -81
-45 -28 -10 -68 -32 -91 -48 -22 -16 -53 -32 -69 -36 -15 -3 -36 -15 -45 -25
-10 -11 -43 -29 -74 -40 -31 -12 -67 -32 -81 -44 -14 -13 -48 -31 -76 -40 -32
-10 -58 -27 -72 -45 -15 -20 -36 -32 -72 -41 -35 -8 -56 -20 -67 -37 -9 -14
-37 -34 -62 -45 -25 -11 -55 -28 -66 -38 -11 -11 -38 -26 -60 -35 -22 -9 -53
-29 -70 -45 -16 -15 -45 -31 -63 -35 -17 -4 -50 -22 -73 -41 -22 -19 -45 -34
-50 -34 -5 0 -26 -15 -46 -34 -21 -18 -55 -41 -77 -50 -21 -9 -54 -29 -72 -46
-19 -16 -39 -30 -44 -30 -6 0 -27 -15 -48 -34 -21 -19 -57 -42 -80 -51 -23
-10 -47 -26 -53 -36 -5 -10 -26 -28 -47 -38 -20 -11 -50 -33 -66 -50 -17 -17
-35 -31 -42 -31 -7 0 -26 -11 -42 -25 -17 -14 -49 -34 -72 -44 -23 -10 -56
-33 -73 -50 -82 -80 -106 -100 -143 -120 -62 -34 -152 -105 -243 -192 -21 -20
-47 -42 -58 -47 -11 -6 -40 -27 -64 -47 -24 -19 -66 -52 -92 -73 -108 -84
-171 -137 -197 -166 -29 -32 -194 -186 -199 -186 -3 0 -44 -37 -91 -81 -47
-45 -125 -118 -174 -162 -178 -162 -221 -204 -358 -352 -77 -82 -158 -170
-180 -195 -42 -48 -42 -48 -73 -79 -11 -11 -40 -43 -65 -72 -25 -28 -63 -71
-85 -95 -22 -24 -47 -51 -56 -61 -9 -10 -23 -25 -32 -33 -63 -60 -109 -118
-177 -220 -16 -25 -58 -76 -92 -113 -35 -38 -68 -77 -74 -88 -5 -11 -23 -32
-38 -47 -26 -25 -63 -78 -112 -161 -21 -35 -43 -61 -120 -146 -21 -22 -43 -54
-50 -71 -7 -17 -29 -50 -48 -73 -20 -24 -36 -47 -36 -53 0 -5 -14 -22 -31 -38
-34 -30 -58 -67 -113 -171 -19 -37 -42 -69 -51 -73 -9 -3 -25 -25 -35 -49 -11
-24 -33 -61 -50 -82 -16 -21 -30 -44 -30 -51 0 -7 -16 -25 -35 -41 -19 -16
-41 -46 -50 -66 -9 -21 -29 -57 -45 -79 -17 -23 -30 -47 -30 -54 0 -7 -17 -33
-39 -58 -21 -24 -41 -60 -45 -79 -3 -18 -18 -45 -32 -58 -14 -13 -35 -42 -46
-64 -12 -22 -31 -53 -43 -70 -13 -16 -26 -44 -30 -62 -3 -17 -21 -48 -40 -67
-20 -22 -36 -50 -40 -74 -4 -26 -18 -51 -41 -73 -23 -22 -37 -46 -41 -73 -4
-24 -19 -53 -38 -75 -18 -20 -39 -60 -48 -91 -9 -31 -27 -66 -41 -79 -13 -12
-29 -43 -36 -69 -6 -25 -24 -61 -41 -79 -16 -18 -34 -54 -40 -78 -6 -25 -24
-61 -39 -81 -16 -19 -34 -58 -40 -87 -6 -30 -21 -63 -37 -79 -16 -17 -31 -50
-40 -90 -8 -36 -24 -74 -37 -88 -15 -16 -30 -53 -40 -102 -9 -42 -24 -82 -32
-89 -24 -20 -41 -60 -49 -112 -5 -29 -18 -61 -32 -78 -16 -19 -31 -58 -42
-109 -11 -49 -28 -95 -46 -120 -18 -26 -31 -61 -36 -96 -5 -35 -17 -67 -33
-89 -18 -23 -32 -63 -45 -124 -10 -51 -30 -109 -45 -136 -18 -30 -31 -72 -37
-118 -7 -51 -19 -87 -41 -122 -22 -37 -33 -69 -39 -125 -6 -48 -20 -97 -39
-135 -20 -41 -32 -86 -38 -142 -7 -59 -18 -99 -40 -141 -22 -43 -32 -78 -37
-133 -10 -113 -25 -180 -51 -224 -19 -32 -25 -64 -33 -163 -8 -96 -15 -135
-35 -175 -32 -69 -35 -80 -45 -227 -5 -70 -17 -145 -26 -170 -34 -91 -44 -149
-54 -325 -6 -101 -18 -204 -26 -235 -9 -30 -23 -77 -31 -105 -11 -35 -18 -136
-24 -340 -9 -279 -12 -308 -52 -485 -6 -26 -12 -310 -15 -685 -5 -669 -3 -738
39 -990 14 -83 22 -204 28 -395 9 -299 11 -311 45 -415 19 -56 26 -109 35
-260 12 -206 16 -235 50 -309 18 -40 24 -78 31 -200 8 -137 12 -156 40 -216
26 -55 32 -84 41 -185 8 -99 14 -129 38 -180 22 -45 33 -86 41 -165 9 -81 19
-121 45 -175 24 -52 34 -90 39 -150 5 -58 13 -90 29 -115 30 -46 35 -63 45
-152 6 -55 16 -85 40 -123 21 -34 34 -71 40 -116 5 -39 21 -88 39 -123 17 -31
34 -78 37 -104 11 -85 16 -100 46 -145 17 -25 34 -70 40 -103 6 -33 21 -73 35
-91 14 -18 31 -64 40 -105 9 -40 29 -93 45 -118 15 -25 31 -65 35 -90 8 -50
25 -90 47 -109 9 -6 21 -35 27 -64 11 -46 21 -68 68 -152 7 -13 16 -44 21 -69
5 -27 20 -59 38 -79 20 -23 33 -51 37 -81 5 -30 18 -59 40 -85 22 -26 36 -56
40 -84 5 -30 16 -53 36 -72 18 -17 33 -46 40 -77 8 -32 24 -61 45 -82 23 -23
34 -46 39 -77 5 -33 16 -54 40 -77 21 -20 38 -48 45 -78 7 -25 24 -59 40 -74
15 -15 33 -46 39 -68 7 -23 24 -54 38 -71 13 -16 30 -44 36 -63 6 -18 19 -42
29 -53 10 -11 28 -43 40 -70 12 -28 37 -67 55 -88 19 -20 34 -43 34 -50 0 -16
77 -139 118 -187 16 -19 34 -50 40 -69 7 -18 26 -51 44 -72 18 -22 49 -58 69
-82 19 -23 42 -57 49 -76 7 -18 23 -45 35 -60 12 -14 28 -38 36 -53 8 -14 27
-41 42 -60 27 -32 67 -91 114 -166 12 -20 35 -48 51 -64 17 -15 33 -36 36 -46
4 -10 19 -28 35 -40 16 -12 40 -40 52 -62 12 -22 26 -40 31 -40 4 0 17 -19 29
-42 23 -46 58 -91 129 -168 25 -27 63 -72 85 -101 22 -28 49 -62 60 -74 11
-12 48 -57 82 -101 77 -98 96 -119 291 -321 86 -90 211 -219 277 -288 66 -69
128 -134 138 -143 53 -49 360 -347 387 -376 84 -89 336 -308 405 -352 17 -10
42 -30 58 -44 15 -14 46 -42 70 -62 23 -20 60 -53 82 -73 38 -33 96 -74 174
-122 38 -24 92 -68 149 -124 20 -19 54 -46 75 -58 20 -12 37 -26 37 -30 0 -4
25 -20 56 -35 30 -15 58 -34 61 -41 3 -8 21 -25 41 -37 21 -12 49 -34 64 -49
16 -15 41 -30 58 -34 16 -4 48 -22 71 -41 22 -19 46 -34 53 -34 7 0 25 -14 42
-31 16 -17 49 -40 73 -50 24 -11 59 -33 78 -49 18 -17 38 -30 43 -30 6 0 27
-15 47 -34 21 -18 61 -41 88 -50 28 -9 56 -25 63 -36 6 -11 34 -31 62 -45 27
-14 50 -29 50 -33 0 -10 65 -42 84 -42 8 0 28 -16 46 -36 21 -25 45 -39 72
-46 23 -5 56 -21 74 -36 18 -15 47 -37 64 -50 25 -20 30 -30 30 -67 0 -27 -7
-51 -18 -66 l-19 -22 -1829 2 c-1100 1 -1865 6 -1919 12 -49 5 -112 16 -140
23 -87 25 -156 35 -287 45 -109 7 -136 13 -191 38 -35 17 -90 33 -123 37 -84
10 -128 23 -157 46 -16 13 -59 27 -107 35 -54 9 -91 22 -113 39 -17 13 -60 31
-94 39 -35 8 -75 25 -92 39 -16 14 -52 31 -79 37 -32 8 -59 23 -80 45 -21 22
-44 35 -70 39 -22 4 -48 17 -63 33 -13 14 -37 33 -54 41 -16 8 -41 26 -55 38
-14 13 -45 31 -70 41 -25 10 -62 34 -82 53 -61 60 -124 114 -173 151 -108 82
-288 260 -415 410 -70 83 -121 139 -189 210 -35 36 -74 82 -87 102 -13 20 -33
47 -44 60 -25 27 -79 98 -114 148 -13 19 -64 76 -113 126 l-88 91 -145 12
c-163 14 -397 0 -437 -25 -32 -20 -40 -80 -26 -198 6 -55 12 -173 12 -262 1
-198 17 -399 37 -479 26 -98 43 -280 44 -450 0 -225 17 -461 40 -563 27 -124
38 -259 46 -572 5 -202 10 -287 21 -319 29 -88 44 -231 53 -533 6 -193 16
-337 26 -390 40 -215 44 -267 54 -588 12 -404 25 -569 49 -630 11 -25 22 -64
26 -87 5 -33 18 -52 60 -92 l54 -51 5388 2 c4988 3 5391 4 5414 19 53 35 51
-13 50 1634 -1 1505 -4 1688 -34 1770 -14 39 -80 95 -154 130 -29 13 -59 36
-68 49 -10 15 -37 32 -65 41 -27 9 -54 23 -61 31 -7 9 -31 25 -53 36 -23 11
-50 31 -61 45 -26 31 -117 96 -172 122 -23 11 -47 29 -53 40 -6 12 -27 29 -48
40 -20 10 -47 33 -60 50 -12 17 -28 31 -36 31 -7 0 -38 18 -69 40 -30 22 -59
40 -64 40 -5 0 -25 16 -44 36 -18 20 -46 42 -61 50 -16 8 -28 21 -28 29 0 8
-17 25 -37 39 -21 13 -47 33 -58 46 -11 12 -41 33 -67 46 -27 13 -48 28 -48
33 0 5 -17 20 -37 33 -21 14 -68 54 -106 89 -37 35 -89 82 -114 104 -26 22
-59 53 -74 69 -46 48 -61 63 -139 136 -41 39 -150 144 -242 234 -93 91 -171
166 -175 168 -5 1 -48 48 -98 103 -49 55 -121 132 -160 172 -38 39 -79 82 -91
95 -11 12 -28 30 -37 38 -79 70 -285 304 -337 380 -37 55 -105 135 -203 240
-23 25 -50 59 -60 75 -41 71 -128 185 -178 234 -19 20 -41 50 -48 68 -7 17
-19 34 -27 37 -7 3 -27 32 -44 66 -17 33 -35 60 -40 60 -5 0 -21 23 -35 50
-14 28 -33 54 -42 57 -8 3 -26 29 -38 58 -13 28 -37 66 -54 83 -17 17 -31 37
-31 44 0 8 -15 29 -34 47 -20 19 -37 47 -41 68 -3 19 -21 51 -39 71 -18 20
-41 53 -51 72 -10 19 -28 47 -41 62 -12 15 -25 40 -29 56 -3 16 -19 43 -36 60
-16 16 -36 51 -44 77 -7 27 -27 62 -43 79 -16 17 -34 46 -40 63 -6 18 -22 48
-36 66 -14 18 -32 53 -41 76 -8 24 -26 56 -40 72 -13 17 -29 48 -35 70 -6 21
-24 54 -39 72 -16 18 -34 51 -40 73 -6 23 -24 58 -40 77 -16 20 -34 57 -40 83
-7 25 -25 63 -40 83 -16 20 -34 60 -41 89 -7 29 -22 65 -35 80 -12 15 -32 56
-44 92 -12 36 -35 85 -51 109 -17 24 -30 57 -30 72 0 39 -17 78 -45 106 -15
16 -26 41 -30 73 -4 29 -20 69 -40 99 -19 30 -37 77 -45 113 -7 36 -24 79 -40
103 -18 24 -31 60 -35 90 -4 28 -22 78 -41 112 -21 38 -37 84 -42 122 -5 36
-19 75 -34 98 -30 46 -48 96 -48 133 0 15 -14 53 -30 84 -21 39 -35 85 -44
144 -8 55 -23 106 -40 139 -15 29 -32 81 -37 119 -13 94 -19 114 -46 154 -18
28 -25 59 -33 140 -8 83 -17 117 -40 161 -22 43 -32 85 -44 170 -9 76 -25 140
-45 191 -23 57 -31 93 -31 140 -1 98 -16 180 -45 242 -24 51 -28 75 -36 214
-11 208 -15 233 -45 321 -23 65 -28 101 -35 256 -10 216 -24 351 -44 425 -8
30 -19 102 -24 160 -15 167 -22 1225 -12 1815 9 540 9 540 35 635 22 80 28
128 36 305 14 307 17 339 46 408 22 51 28 86 35 197 11 180 16 206 46 270 21
44 29 83 40 194 11 116 17 146 38 182 19 33 29 71 40 160 12 95 19 124 41 155
21 31 28 58 39 154 10 88 20 126 38 158 14 23 32 80 41 126 8 46 23 95 33 109
36 50 43 68 43 112 1 66 15 116 42 149 18 20 29 51 37 104 9 56 20 85 41 112
16 20 31 54 35 78 10 65 26 109 52 143 13 18 28 56 33 88 10 61 14 71 42 102
10 11 27 51 37 87 10 37 30 84 44 105 14 20 32 62 40 94 8 31 28 74 44 95 17
21 36 58 42 83 7 25 23 56 36 70 12 14 30 50 40 80 10 30 26 64 36 75 10 11
25 38 34 60 10 22 25 49 35 60 11 11 30 45 43 75 14 30 34 64 46 74 12 11 28
43 37 72 9 32 24 58 38 68 13 8 32 37 42 63 10 26 30 62 45 80 15 17 30 42 34
55 4 13 22 39 40 58 18 19 38 53 45 75 7 22 27 57 44 77 72 87 87 108 106 150
10 24 29 53 41 64 11 10 28 32 36 49 9 16 31 43 49 58 19 16 34 33 34 39 0 6
17 34 39 62 21 28 46 65 54 82 9 17 23 34 31 37 8 3 24 24 35 45 11 22 29 42
40 45 10 2 31 23 45 46 15 22 31 41 36 41 5 0 25 24 45 53 97 143 128 182 237
299 43 46 86 92 96 103 10 11 27 28 38 37 10 10 26 25 34 33 8 9 62 62 120
119 58 57 131 130 162 162 137 141 272 262 330 297 77 47 156 107 215 165 34
34 75 68 91 76 15 8 35 22 42 31 8 9 32 26 54 37 39 20 67 40 159 119 23 20
61 42 84 49 23 7 54 26 69 41 15 16 33 29 40 29 7 0 33 18 58 39 25 22 58 42
74 46 16 3 44 21 62 40 18 19 46 37 61 40 15 4 44 19 64 35 20 16 53 34 73 41
20 6 51 24 67 40 17 15 51 33 78 40 32 8 54 20 67 40 14 19 38 33 73 43 29 8
64 27 77 41 13 14 42 30 64 36 59 15 96 30 96 40 0 13 51 36 97 44 23 3 59 20
79 36 20 16 42 29 48 29 30 0 88 23 114 45 17 14 59 31 98 41 38 8 89 29 113
45 26 17 65 31 93 35 27 4 66 18 85 31 46 31 74 42 143 55 30 5 69 20 85 32
37 28 51 33 144 46 52 7 84 18 106 35 29 21 76 34 187 50 20 3 58 17 85 32 35
19 76 29 155 38 74 9 124 21 165 40 45 21 83 29 173 36 111 10 155 19 250 54
30 11 101 19 215 25 190 10 264 22 345 52 47 17 90 22 295 29 296 10 1016 10
1430 0 299 -8 313 -9 389 -34 88 -30 206 -47 341 -47 87 -1 165 -17 260 -53
23 -9 91 -20 152 -26 82 -8 125 -17 168 -36 42 -19 86 -29 159 -36 80 -8 114
-16 164 -41 45 -21 88 -33 145 -39 59 -7 98 -18 139 -39 32 -16 87 -34 122
-40 76 -12 114 -25 138 -47 10 -9 57 -24 105 -34 49 -11 96 -27 107 -38 33
-29 62 -41 101 -41 35 0 108 -30 119 -49 6 -10 40 -22 113 -41 23 -6 56 -22
73 -37 20 -16 51 -29 83 -34 28 -5 63 -18 77 -29 33 -27 57 -37 103 -45 20 -3
52 -19 70 -34 17 -16 58 -36 90 -45 32 -9 67 -27 78 -40 12 -13 42 -30 67 -36
26 -7 63 -27 82 -45 19 -17 54 -37 77 -44 24 -6 55 -25 70 -40 16 -16 51 -36
80 -45 28 -10 57 -24 64 -32 7 -9 33 -26 58 -39 25 -12 54 -32 65 -44 10 -11
40 -27 66 -36 29 -10 55 -26 65 -41 9 -14 33 -32 53 -41 20 -8 46 -23 57 -33
11 -11 42 -28 68 -40 26 -12 54 -32 63 -45 8 -12 28 -29 45 -35 16 -7 38 -23
47 -35 10 -13 41 -34 70 -49 28 -14 56 -35 62 -45 5 -11 20 -23 32 -26 13 -4
42 -26 64 -48 23 -23 68 -62 99 -87 32 -25 70 -56 84 -69 14 -13 49 -39 76
-58 120 -81 114 -76 325 -288 120 -120 117 -117 149 -147 13 -13 33 -34 45
-47 11 -13 28 -30 36 -38 43 -41 146 -143 155 -152 6 -6 21 -22 35 -36 14 -13
40 -43 58 -67 18 -24 53 -67 77 -97 25 -30 45 -58 45 -63 0 -10 66 -88 203
-240 71 -79 95 -112 113 -159 10 -24 34 -60 53 -80 57 -59 88 -102 107 -150
10 -24 32 -61 51 -82 18 -20 33 -43 33 -51 0 -8 16 -33 36 -57 19 -23 38 -55
41 -71 3 -16 18 -39 33 -51 32 -28 45 -50 54 -96 3 -18 19 -48 35 -67 19 -21
34 -53 41 -88 6 -30 18 -60 26 -67 32 -27 46 -73 55 -192 10 -128 4 -329 -12
-410 -5 -27 -20 -63 -33 -80 -13 -18 -31 -57 -40 -88 -9 -31 -25 -67 -36 -80
-11 -13 -29 -54 -40 -90 -11 -36 -31 -79 -45 -95 -23 -27 -45 -81 -45 -113 0
-7 -15 -30 -33 -51 -23 -24 -36 -51 -41 -80 -4 -29 -18 -56 -40 -80 -25 -27
-35 -50 -40 -88 -5 -38 -15 -60 -36 -82 -19 -19 -31 -44 -35 -74 -5 -30 -18
-57 -40 -82 -24 -27 -35 -51 -40 -87 -5 -32 -16 -60 -35 -80 -15 -18 -35 -56
-44 -85 -10 -29 -28 -65 -41 -80 -12 -15 -30 -53 -39 -84 -9 -31 -28 -71 -42
-88 -14 -16 -32 -51 -40 -77 -8 -26 -23 -56 -34 -68 -11 -12 -31 -50 -45 -85
-14 -35 -33 -73 -44 -84 -10 -12 -24 -39 -31 -61 -7 -22 -27 -67 -45 -100 -18
-33 -35 -72 -39 -86 -3 -14 -19 -42 -35 -62 -15 -20 -33 -56 -39 -80 -6 -24
-25 -61 -42 -82 -16 -21 -35 -56 -41 -79 -6 -22 -24 -59 -40 -81 -16 -22 -35
-63 -44 -91 -8 -28 -24 -59 -34 -69 -11 -9 -28 -40 -37 -69 -9 -28 -29 -65
-44 -82 -15 -18 -33 -54 -39 -82 -7 -28 -23 -60 -37 -73 -14 -13 -32 -48 -40
-79 -9 -30 -27 -70 -41 -87 -13 -18 -30 -54 -38 -79 -7 -25 -25 -62 -39 -82
-13 -21 -34 -62 -46 -94 -11 -31 -27 -61 -35 -68 -8 -7 -24 -37 -35 -67 -11
-31 -34 -74 -50 -97 -16 -23 -34 -60 -40 -83 -6 -23 -22 -56 -36 -72 -14 -16
-32 -52 -41 -78 -9 -26 -26 -60 -39 -75 -12 -15 -29 -52 -38 -81 -9 -29 -25
-62 -36 -72 -11 -10 -29 -43 -40 -74 -12 -31 -32 -67 -45 -81 -13 -14 -31 -50
-40 -81 -9 -32 -27 -69 -40 -83 -13 -14 -27 -43 -31 -64 -8 -44 -27 -83 -48
-101 -8 -7 -25 -41 -36 -77 -12 -36 -30 -69 -41 -74 -10 -6 -25 -34 -34 -64
-9 -30 -29 -70 -44 -90 -16 -20 -33 -55 -39 -79 -6 -24 -25 -60 -41 -80 -16
-21 -34 -59 -41 -86 -6 -27 -22 -59 -36 -72 -14 -13 -32 -48 -40 -78 -9 -30
-27 -64 -41 -77 -13 -12 -31 -46 -38 -74 -7 -28 -25 -67 -40 -86 -14 -19 -33
-57 -41 -84 -8 -27 -26 -61 -39 -76 -13 -14 -31 -50 -40 -80 -8 -29 -27 -66
-40 -80 -14 -15 -32 -52 -41 -81 -9 -30 -27 -66 -40 -80 -13 -14 -31 -48 -39
-75 -8 -28 -28 -65 -45 -84 -16 -19 -30 -40 -30 -47 0 -30 -23 -89 -44 -114
-12 -15 -30 -50 -39 -76 -9 -27 -29 -63 -45 -82 -16 -18 -32 -50 -36 -71 -4
-22 -20 -55 -35 -74 -16 -20 -32 -51 -36 -70 -10 -45 -28 -80 -54 -104 -12
-11 -21 -24 -21 -30 0 -32 -25 -91 -50 -119 -16 -18 -34 -54 -40 -79 -7 -27
-24 -58 -41 -74 -16 -15 -29 -33 -29 -38 0 -34 -25 -92 -51 -119 -16 -17 -32
-41 -34 -54 -3 -13 -7 -34 -10 -48 -3 -13 -18 -39 -34 -57 -16 -18 -36 -58
-44 -88 -9 -31 -27 -66 -41 -79 -13 -13 -30 -44 -36 -70 -6 -27 -24 -62 -40
-79 -17 -19 -33 -52 -40 -84 -7 -36 -20 -61 -40 -79 -20 -19 -30 -40 -36 -74
-5 -36 -16 -57 -40 -81 -23 -24 -35 -46 -40 -80 -5 -33 -16 -55 -39 -78 -22
-22 -35 -47 -40 -76 -5 -27 -19 -56 -40 -79 -20 -22 -36 -53 -40 -76 -9 -49
-22 -74 -50 -101 -13 -12 -26 -40 -30 -64 -5 -27 -19 -56 -41 -80 -19 -21 -34
-41 -34 -46 0 -31 -25 -89 -50 -114 -19 -20 -31 -44 -36 -76 -4 -29 -17 -58
-34 -78 -15 -17 -35 -57 -44 -89 -9 -32 -24 -61 -32 -64 -18 -7 -39 -46 -49
-93 -4 -19 -20 -50 -36 -67 -15 -18 -35 -56 -43 -84 -9 -28 -28 -65 -44 -84
-18 -19 -32 -50 -36 -75 -4 -29 -18 -56 -40 -81 -21 -23 -36 -52 -41 -78 -4
-27 -19 -54 -40 -76 -23 -25 -35 -49 -40 -81 -4 -32 -16 -54 -39 -77 -22 -22
-35 -47 -39 -74 -4 -22 -20 -57 -37 -78 -16 -20 -32 -54 -36 -74 -8 -45 -21
-69 -50 -99 -12 -13 -28 -47 -34 -75 -7 -32 -22 -64 -39 -82 -15 -16 -33 -49
-40 -73 -6 -23 -25 -57 -40 -75 -16 -18 -34 -52 -41 -77 -7 -25 -25 -59 -40
-76 -15 -18 -33 -54 -39 -82 -7 -28 -23 -60 -37 -73 -14 -13 -32 -48 -41 -79
-8 -30 -28 -70 -44 -87 -15 -18 -34 -52 -40 -75 -7 -24 -23 -55 -36 -69 -13
-15 -30 -51 -37 -81 -7 -30 -26 -73 -43 -94 -16 -21 -35 -58 -42 -81 -6 -23
-23 -56 -37 -72 -13 -16 -32 -54 -40 -83 -9 -29 -26 -63 -39 -76 -14 -12 -31
-45 -39 -73 -9 -28 -26 -63 -40 -79 -13 -16 -32 -53 -41 -82 -10 -29 -28 -64
-41 -78 -13 -15 -31 -49 -39 -78 -9 -28 -27 -64 -40 -81 -14 -16 -32 -50 -39
-75 -8 -25 -25 -59 -39 -76 -14 -16 -33 -53 -42 -82 -10 -29 -28 -69 -41 -88
-13 -20 -30 -57 -38 -83 -8 -25 -26 -61 -40 -78 -14 -17 -31 -51 -37 -75 -6
-24 -24 -61 -40 -81 -16 -19 -33 -52 -39 -73 -6 -21 -24 -54 -40 -75 -16 -21
-34 -54 -40 -74 -5 -20 -21 -52 -35 -70 -13 -19 -32 -55 -41 -80 -10 -25 -28
-61 -41 -79 -13 -17 -33 -57 -43 -88 -11 -30 -31 -69 -45 -85 -14 -17 -28 -43
-31 -57 -4 -15 -24 -60 -45 -100 -22 -41 -39 -79 -39 -86 0 -7 -12 -31 -27
-52 -14 -21 -35 -61 -46 -89 -10 -27 -29 -63 -41 -80 -13 -16 -29 -48 -36 -70
-7 -22 -21 -49 -31 -60 -21 -24 -58 -103 -59 -126 0 -8 -13 -33 -30 -55 -16
-21 -34 -56 -40 -76 -6 -20 -22 -51 -36 -67 -14 -16 -32 -52 -41 -78 -9 -26
-26 -62 -39 -79 -13 -17 -32 -55 -43 -83 -10 -28 -31 -65 -45 -82 -14 -17 -26
-39 -26 -50 0 -27 -27 -89 -49 -114 -10 -11 -26 -42 -35 -70 -9 -27 -27 -63
-41 -79 -13 -15 -31 -52 -40 -81 -8 -30 -27 -68 -41 -85 -14 -16 -32 -51 -40
-77 -8 -26 -25 -59 -38 -73 -13 -14 -31 -50 -40 -80 -8 -31 -27 -67 -40 -79
-14 -13 -32 -48 -41 -77 -8 -29 -27 -66 -40 -80 -14 -15 -32 -51 -40 -79 -9
-29 -27 -62 -40 -75 -14 -13 -32 -49 -41 -81 -11 -38 -25 -64 -40 -74 -14 -9
-25 -29 -29 -52 -10 -57 -26 -93 -46 -104 -10 -5 -23 -28 -30 -52 -20 -74 -30
-96 -54 -111 -16 -11 -27 -32 -35 -69 -7 -37 -20 -63 -40 -82 -17 -16 -33 -44
-36 -64 -8 -45 -20 -69 -49 -101 -13 -14 -30 -51 -39 -82 -10 -35 -24 -62 -36
-68 -12 -6 -27 -35 -39 -75 -12 -43 -29 -75 -49 -93 -19 -18 -32 -42 -36 -69
-4 -23 -17 -49 -28 -60 -26 -22 -48 -73 -48 -109 0 -16 -11 -37 -30 -54 -32
-30 -50 -68 -50 -106 0 -15 -14 -40 -35 -61 -20 -20 -38 -47 -40 -60 -3 -13
-7 -34 -10 -48 -3 -13 -19 -37 -35 -52 -20 -19 -33 -43 -39 -76 -6 -33 -19
-59 -41 -82 -24 -25 -34 -45 -37 -80 -5 -35 -13 -53 -39 -78 -26 -24 -35 -42
-40 -81 -6 -38 -15 -58 -40 -83 -23 -23 -36 -47 -41 -75 -4 -28 -17 -53 -38
-74 -24 -24 -34 -44 -39 -81 -5 -38 -14 -57 -40 -82 -25 -25 -36 -45 -41 -80
-5 -33 -16 -56 -40 -81 -23 -24 -35 -49 -40 -80 -5 -31 -17 -56 -40 -80 -21
-23 -35 -49 -40 -76 -4 -27 -17 -51 -35 -69 -16 -16 -37 -50 -45 -76 -9 -26
-23 -53 -31 -60 -30 -25 -44 -70 -50 -156 -6 -86 -6 -89 24 -129 20 -27 42
-44 69 -52 31 -9 346 -12 1294 -11 690 0 1278 4 1307 8 39 6 59 14 75 33 12
15 32 31 45 38 13 6 32 32 42 56 11 25 31 59 44 77 13 18 31 58 39 89 8 32 26
71 40 88 14 16 31 54 37 83 7 37 20 63 40 82 20 20 31 42 36 74 7 51 25 91 47
110 9 6 21 34 27 61 7 27 25 66 41 86 25 32 49 89 49 120 0 5 13 30 29 55 15
25 36 68 45 96 9 27 28 65 42 84 14 19 32 57 40 86 8 28 28 68 43 87 17 21 31
54 35 81 5 29 19 58 40 84 23 27 36 55 41 87 5 34 16 55 41 80 20 21 34 45 34
60 0 34 23 85 48 107 11 10 26 41 32 69 7 28 26 65 43 84 18 21 33 53 38 81 6
31 20 58 40 79 21 22 34 48 40 80 6 31 20 59 38 79 18 19 32 46 36 73 4 26 20
57 40 82 20 24 36 56 40 81 5 26 20 55 40 78 22 24 35 51 40 81 4 27 19 61 37
84 17 21 37 59 44 84 8 25 25 58 38 72 13 14 31 49 40 78 8 30 29 69 45 87 16
19 32 51 36 74 4 24 20 57 40 80 19 24 35 56 39 80 3 24 19 55 36 75 19 21 34
52 39 82 7 36 18 56 40 74 22 19 33 40 42 79 7 36 21 62 43 85 22 22 35 46 40
74 4 28 18 55 41 81 19 21 35 48 35 59 0 34 18 72 49 102 19 19 31 44 35 73 5
31 16 53 40 76 25 24 36 45 41 78 4 31 17 55 40 80 22 24 35 49 40 78 3 26 18
59 35 81 17 20 35 55 41 78 6 22 23 55 39 71 15 17 35 52 43 78 9 26 27 62 41
78 14 16 30 48 36 69 6 21 22 53 36 69 14 16 32 52 41 78 9 26 31 70 50 97 18
26 33 56 33 65 0 9 16 41 35 71 20 30 40 72 46 92 5 20 20 50 34 66 13 16 33
54 45 84 11 30 29 63 40 73 11 10 23 34 26 54 9 46 29 87 48 94 8 3 23 31 31
62 9 31 29 71 45 88 15 18 33 53 40 77 6 25 24 59 40 75 15 17 33 52 39 80 7
28 25 63 40 80 16 17 36 52 44 78 9 27 29 63 45 82 16 18 33 50 37 71 4 22 21
54 40 75 20 23 35 52 40 78 4 25 20 57 40 81 20 23 36 56 40 81 4 22 19 55 35
72 15 18 33 52 40 77 7 25 25 59 40 76 15 18 33 54 39 82 7 28 23 60 37 73 14
13 33 51 44 88 11 39 28 71 39 78 10 7 29 38 41 69 11 32 32 70 45 86 14 16
29 47 36 70 6 23 23 57 39 77 15 20 35 58 43 84 9 26 28 62 42 78 14 17 28 43
31 57 4 15 18 47 32 72 15 25 37 69 49 99 12 30 29 58 37 63 8 4 24 37 36 72
11 35 29 71 40 81 11 10 27 40 36 69 9 28 29 65 44 82 15 17 32 53 39 80 7 27
23 60 36 74 13 14 33 50 45 82 12 32 31 63 45 72 16 11 27 31 35 69 7 37 20
63 40 82 18 17 33 46 41 77 6 28 24 64 39 82 15 17 32 54 39 81 7 29 25 63 41
80 15 17 34 50 40 75 6 25 24 59 40 75 16 17 34 50 40 75 6 25 23 57 36 71 14
14 34 50 45 79 11 30 31 67 45 83 13 16 29 49 35 73 6 24 24 60 40 80 15 20
35 59 43 87 9 29 26 62 39 73 12 12 30 46 40 76 9 30 26 63 37 73 10 9 27 40
36 69 9 28 27 64 40 79 13 15 28 46 34 69 7 22 26 62 44 89 19 26 37 60 41 76
3 15 18 43 31 61 14 18 33 54 41 80 9 26 28 61 43 78 15 17 32 52 39 78 6 26
25 60 41 78 19 19 33 47 37 71 4 25 18 54 39 76 17 20 37 56 44 81 6 25 24 59
40 75 15 17 35 55 44 85 8 31 27 67 41 80 14 13 25 28 25 34 0 33 25 90 50
116 16 16 34 49 40 72 7 24 22 54 35 68 28 31 40 56 49 99 3 18 19 49 36 67
16 19 35 55 41 79 6 25 24 62 40 82 16 19 34 54 40 77 6 22 24 55 39 72 15 18
33 50 40 71 7 21 23 53 37 70 13 18 31 52 39 75 8 24 26 60 39 80 13 20 27 48
31 63 4 14 21 47 39 73 17 26 39 69 48 95 9 26 27 62 41 78 14 16 30 47 36 68
5 21 23 55 39 74 16 20 34 57 40 82 6 24 24 59 40 77 16 19 34 54 41 78 6 25
24 59 40 75 16 17 31 47 35 70 8 43 28 80 56 105 9 8 24 40 33 70 9 32 26 65
39 77 15 13 29 41 37 74 7 33 24 66 40 84 16 17 32 48 36 69 4 23 21 55 41 77
24 26 37 52 40 80 4 29 16 50 39 73 22 22 37 48 44 82 7 31 21 58 39 75 17 15
35 48 44 80 9 30 27 65 41 78 13 12 29 43 36 67 7 25 26 61 42 81 16 20 34 56
40 80 6 24 23 60 39 80 16 19 33 52 39 73 6 20 21 54 35 75 14 20 34 60 45 87
10 28 26 58 35 68 8 9 26 44 39 78 13 33 35 76 49 94 13 18 27 44 30 58 4 14
20 46 36 70 16 25 37 68 47 95 9 28 27 63 40 78 13 15 28 45 34 66 5 21 22 56
37 77 14 22 35 61 45 88 10 27 29 63 42 80 13 17 29 47 35 67 6 20 23 51 36
69 13 18 31 56 39 84 8 28 26 66 40 85 14 19 32 55 41 81 9 26 25 56 36 66 11
10 32 40 47 66 36 64 60 62 84 -7 10 -27 31 -74 45 -104 25 -50 28 -68 34
-225 7 -159 9 -177 39 -256 31 -81 32 -94 42 -300 8 -168 14 -228 29 -274 34
-101 40 -144 49 -396 6 -176 14 -272 28 -340 45 -213 47 -289 47 -1550 0
-1115 -1 -1202 -18 -1305 -11 -60 -25 -135 -33 -166 -9 -34 -18 -150 -23 -290
-8 -211 -12 -240 -34 -299 -30 -81 -34 -104 -47 -262 -5 -70 -16 -145 -25
-167 -8 -23 -21 -58 -29 -79 -8 -21 -19 -88 -25 -150 -8 -90 -16 -124 -40
-175 -24 -49 -32 -84 -41 -171 -8 -92 -14 -116 -36 -147 -19 -28 -29 -61 -38
-128 -10 -67 -19 -100 -39 -128 -27 -40 -46 -105 -47 -160 0 -17 -16 -61 -35
-97 -22 -42 -39 -90 -44 -130 -5 -35 -23 -90 -39 -122 -17 -32 -33 -79 -37
-104 -4 -27 -19 -60 -36 -83 -20 -24 -33 -56 -39 -91 -9 -55 -31 -109 -50
-121 -5 -3 -19 -38 -31 -78 -12 -40 -34 -86 -49 -103 -17 -20 -30 -49 -34 -78
-5 -30 -18 -59 -40 -85 -22 -26 -36 -55 -40 -85 -5 -30 -19 -59 -40 -85 -19
-22 -37 -57 -41 -78 -4 -21 -21 -54 -40 -74 -21 -23 -35 -52 -40 -78 -4 -25
-19 -55 -36 -74 -16 -17 -34 -47 -41 -67 -6 -19 -26 -57 -45 -84 -18 -26 -33
-54 -33 -62 0 -7 -14 -29 -30 -48 -17 -19 -38 -55 -46 -80 -9 -25 -26 -52 -40
-61 -14 -9 -34 -37 -45 -63 -11 -26 -29 -56 -39 -67 -11 -11 -26 -37 -35 -58
-8 -20 -25 -43 -36 -49 -11 -7 -30 -30 -40 -51 -11 -21 -35 -58 -54 -83 -19
-25 -35 -52 -35 -59 0 -8 -15 -26 -34 -40 -19 -14 -37 -37 -40 -50 -4 -14 -19
-39 -35 -57 -15 -18 -38 -52 -50 -75 -12 -24 -25 -43 -30 -43 -5 0 -20 -17
-32 -37 -13 -21 -39 -54 -59 -74 -61 -63 -94 -101 -123 -143 -50 -73 -102
-142 -127 -169 -14 -15 -43 -46 -65 -70 -69 -75 -142 -151 -166 -173 -22 -19
-39 -37 -84 -84 -8 -8 -103 -104 -210 -213 -107 -109 -202 -209 -211 -222 -9
-14 -20 -25 -26 -25 -7 0 -226 -210 -278 -267 -8 -9 -23 -23 -33 -32 -9 -9
-39 -36 -65 -61 -87 -81 -181 -158 -305 -247 -21 -16 -60 -47 -85 -71 -138
-126 -185 -163 -242 -192 -45 -22 -56 -31 -136 -109 -23 -21 -60 -49 -82 -60
-22 -11 -44 -26 -48 -32 -3 -6 -30 -22 -58 -35 -28 -13 -64 -37 -80 -54 -16
-16 -34 -30 -40 -30 -6 0 -27 -13 -46 -28 -19 -16 -55 -36 -78 -45 -24 -10
-55 -31 -68 -47 -14 -16 -46 -36 -73 -45 -27 -9 -52 -23 -55 -31 -3 -8 -30
-26 -59 -38 -29 -13 -59 -31 -66 -40 -7 -8 -38 -25 -69 -36 -33 -12 -68 -33
-82 -51 -17 -20 -37 -31 -65 -35 -40 -6 -54 -17 -151 -113 -22 -23 -45 -41
-50 -41 -23 0 -36 -50 -44 -178 -5 -75 -10 -830 -11 -1677 -2 -1597 -2 -1573
38 -1617 15 -17 285 -18 5433 -18 3750 0 5426 3 5447 10 17 6 36 21 42 34 7
12 25 30 41 39 25 15 30 26 35 75 4 31 20 97 37 147 l30 89 9 351 c8 354 21
537 41 610 25 93 29 135 38 445 9 338 26 514 54 568 13 25 18 90 26 349 10
315 21 464 40 534 26 95 31 155 40 439 9 293 19 399 54 555 15 64 40 616 41
866 0 107 -6 112 -148 129 -62 7 -140 10 -173 7 -32 -4 -93 -10 -135 -13 l-77
-7 -53 -55 c-30 -30 -70 -71 -89 -91 -20 -20 -44 -49 -54 -66 -11 -16 -26 -34
-34 -39 -8 -4 -24 -31 -37 -60 -12 -28 -33 -60 -45 -71 -12 -11 -30 -36 -41
-56 -10 -20 -25 -39 -34 -43 -8 -3 -24 -21 -35 -39 -11 -19 -31 -39 -44 -46
-13 -7 -29 -24 -35 -38 -6 -14 -30 -47 -54 -75 -23 -28 -61 -74 -85 -102 -24
-28 -55 -66 -70 -84 -59 -71 -360 -370 -404 -400 -27 -18 -48 -37 -48 -42 0
-5 -22 -21 -48 -34 -27 -13 -63 -38 -81 -55 -18 -17 -39 -31 -45 -31 -7 0 -27
-15 -45 -34 -18 -18 -51 -39 -74 -45 -24 -7 -56 -27 -74 -47 -18 -19 -40 -34
-50 -34 -10 0 -45 -17 -78 -37 -38 -24 -78 -39 -112 -44 -39 -5 -63 -16 -89
-38 -23 -21 -45 -31 -67 -31 -48 0 -103 -18 -152 -49 -32 -20 -63 -30 -111
-34 -45 -4 -89 -17 -131 -37 -55 -27 -82 -33 -191 -41 -106 -9 -139 -16 -196
-41 -65 -28 -82 -31 -245 -39 -97 -5 -239 -14 -316 -19 -77 -5 -581 -12 -1120
-14 -539 -3 -1284 -8 -1655 -11 l-675 -5 -54 32 c-78 48 -81 55 -40 124 41 69
102 134 127 134 10 0 34 16 53 36 18 20 50 44 70 54 19 10 41 25 48 34 7 8 34
22 61 31 28 9 55 26 64 40 9 14 33 33 54 44 21 11 45 27 52 36 8 9 34 27 59
40 25 12 55 33 66 45 11 12 33 29 50 37 16 9 37 26 47 38 16 21 59 50 173 115
24 14 57 37 72 52 80 78 102 97 134 113 19 10 51 33 72 51 20 19 41 34 45 34
5 0 27 17 49 38 23 20 77 70 121 110 43 41 93 82 111 93 17 10 31 22 31 27 0
8 40 39 139 110 47 33 155 133 444 415 191 185 186 181 233 232 33 37 107 112
172 176 78 76 312 343 338 385 24 39 67 92 124 154 112 122 174 198 201 252
11 22 27 42 35 45 8 3 21 18 29 34 8 15 35 50 60 76 25 26 56 59 69 73 13 14
33 43 44 66 11 22 28 46 37 54 9 8 26 32 37 54 11 23 36 58 54 79 19 20 34 41
34 46 0 5 16 28 35 51 19 23 35 49 35 57 0 9 15 30 34 48 18 17 41 47 51 66 9
19 27 45 40 59 12 14 28 41 35 60 7 19 26 48 42 63 15 16 35 44 43 64 8 19 26
48 39 64 13 16 29 44 36 63 6 19 26 46 44 60 22 16 36 37 40 59 3 18 18 49 32
68 14 19 36 57 49 85 12 28 28 55 34 59 7 4 22 30 35 58 13 29 33 61 45 71 12
11 28 42 36 70 8 28 28 64 44 81 16 16 34 50 41 74 6 24 22 53 34 65 29 27 42
52 50 97 3 20 16 45 27 55 26 24 44 59 54 104 4 19 20 49 35 67 17 19 33 53
40 86 7 34 20 63 35 77 13 13 28 44 35 74 7 28 24 69 40 91 15 22 33 65 40 95
7 30 27 80 46 110 18 30 36 77 40 103 4 33 17 60 39 87 23 27 34 53 39 88 3
28 18 67 32 88 14 20 32 67 41 103 17 76 25 97 53 131 12 15 24 54 30 100 8
54 19 86 40 116 19 27 33 63 39 105 6 35 24 90 41 122 21 39 34 87 44 152 10
63 21 104 35 121 19 24 33 76 46 176 3 26 19 71 34 100 21 40 31 78 40 158 8
77 19 120 40 165 23 47 32 85 41 175 6 67 17 123 25 135 8 11 21 29 29 40 10
13 18 69 24 170 9 132 14 159 41 228 30 73 32 87 40 270 8 157 13 202 30 247
36 93 42 136 51 392 7 196 15 274 34 370 13 68 27 149 31 180 3 31 6 335 6
675 0 619 -6 771 -36 883 -16 57 -29 219 -44 545 -8 169 -12 198 -35 258 -23
59 -28 93 -36 243 -11 193 -12 204 -47 287 -17 43 -26 90 -33 185 -10 132 -20
180 -43 216 -20 30 -27 65 -42 207 -11 103 -18 135 -39 171 -19 33 -28 68 -36
143 -8 78 -17 113 -41 159 -22 43 -33 82 -40 145 -11 103 -14 113 -43 156 -17
25 -26 60 -35 136 -9 85 -16 110 -41 147 -17 25 -30 50 -30 56 -4 86 -21 157
-48 201 -22 34 -35 71 -41 118 -7 48 -17 79 -36 103 -18 24 -32 61 -43 117
-11 60 -23 91 -43 114 -19 23 -29 48 -34 87 -5 36 -19 76 -40 111 -19 30 -39
81 -45 112 -7 31 -24 73 -40 94 -15 22 -32 64 -39 98 -6 33 -25 78 -41 102
-16 24 -35 69 -41 99 -7 34 -22 67 -39 87 -19 21 -30 48 -35 82 -4 32 -15 58
-29 73 -30 30 -42 54 -50 103 -4 22 -20 56 -35 75 -16 20 -35 60 -44 91 -9 30
-27 65 -41 78 -13 12 -29 44 -36 69 -6 26 -24 63 -39 82 -15 19 -34 53 -41 75
-7 22 -25 54 -40 71 -15 18 -33 54 -39 82 -8 30 -23 60 -41 77 -15 15 -33 48
-40 73 -7 26 -26 61 -43 79 -19 20 -32 48 -38 80 -6 32 -18 56 -35 71 -15 13
-35 46 -46 75 -11 28 -33 66 -49 84 -16 19 -29 40 -29 47 0 8 -15 32 -34 54
-18 23 -38 61 -45 87 -8 33 -19 49 -36 57 -18 8 -32 29 -47 70 -11 33 -29 64
-38 71 -9 7 -26 30 -37 52 -12 22 -30 48 -42 59 -11 10 -27 40 -36 66 -9 26
-25 56 -36 66 -12 11 -29 35 -39 54 -10 19 -30 46 -44 59 -14 13 -28 37 -31
53 -4 16 -27 52 -51 79 -24 27 -44 56 -44 63 0 7 -10 21 -21 32 -12 10 -31 39
-42 64 -11 25 -36 64 -56 87 -87 103 -102 123 -117 159 -17 41 -55 91 -115
152 -20 20 -44 52 -53 70 -9 17 -21 32 -27 32 -5 0 -19 21 -31 48 -22 50 -54
92 -128 170 -25 27 -63 70 -85 96 -22 26 -51 59 -64 72 -14 14 -32 35 -40 48
-15 22 -133 167 -213 260 -18 21 -70 77 -114 124 -45 46 -88 92 -96 101 -8 9
-22 23 -31 31 -9 8 -164 164 -345 346 -181 182 -342 339 -359 349 -17 10 -36
29 -42 41 -5 13 -23 30 -38 38 -16 8 -35 26 -43 40 -7 14 -17 26 -21 26 -7 0
-87 79 -155 151 -5 5 -23 19 -41 32 -109 77 -203 150 -246 193 -18 17 -41 34
-53 38 -11 3 -27 18 -35 32 -7 14 -25 32 -40 40 -15 7 -38 27 -51 43 -12 16
-37 36 -54 44 -17 9 -50 32 -73 51 -24 20 -49 36 -56 36 -7 0 -25 16 -39 35
-15 19 -33 35 -40 35 -7 0 -29 17 -48 38 -40 42 -99 85 -168 122 -25 14 -58
36 -72 50 -55 53 -115 98 -158 119 -63 30 -108 60 -146 99 -18 18 -54 41 -80
52 -26 12 -62 34 -80 49 -18 16 -42 32 -52 36 -11 3 -27 16 -35 29 -9 13 -35
33 -59 46 -24 12 -52 30 -63 40 -11 10 -38 26 -61 35 -23 9 -50 29 -62 44 -15
20 -36 32 -70 41 -28 6 -60 22 -72 35 -12 13 -36 29 -53 36 -18 7 -41 20 -52
30 -11 10 -43 28 -70 40 -28 11 -64 36 -81 54 -19 20 -44 35 -70 39 -22 4 -52
20 -69 36 -16 16 -56 38 -88 50 -32 12 -61 28 -63 35 -3 7 -30 23 -59 35 -29
12 -61 30 -70 40 -10 11 -39 26 -66 35 -26 9 -64 29 -85 46 -20 16 -54 34 -75
39 -22 6 -54 24 -73 40 -18 17 -43 30 -54 30 -33 0 -72 18 -109 50 -19 17 -43
30 -54 30 -27 0 -90 27 -114 50 -11 10 -40 23 -65 30 -25 6 -64 25 -87 41 -23
16 -71 38 -107 49 -36 11 -68 25 -71 30 -10 17 -78 47 -119 53 -25 4 -51 18
-71 37 -25 24 -45 33 -89 39 -40 5 -64 15 -84 34 -19 18 -49 30 -104 41 -42 9
-79 16 -81 16 -2 0 -21 13 -40 29 -27 21 -55 31 -105 39 -43 6 -81 19 -106 35
-42 29 -52 33 -118 42 -29 4 -60 16 -78 31 -21 18 -56 31 -121 44 -50 10 -104
27 -119 38 -32 24 -91 42 -140 42 -32 0 -67 14 -142 56 -14 8 -64 19 -110 24
-58 7 -100 19 -141 41 -40 20 -85 33 -140 40 -55 8 -102 21 -142 41 -47 24
-81 33 -155 40 -74 7 -109 16 -160 40 -56 28 -79 33 -185 40 -119 8 -165 18
-196 45 -11 9 -74 19 -190 28 -179 14 -212 20 -268 49 -23 12 -86 21 -212 31
-151 12 -189 19 -242 41 -57 23 -79 26 -272 35 -277 12 -403 24 -500 49 -66
18 -128 23 -355 30 -323 10 -1026 10 -1432 -1z"/>
<path d="M24155 25260 c-60 -4 -128 -14 -150 -22 -64 -24 -164 -38 -343 -47
-143 -8 -176 -13 -227 -34 -79 -32 -92 -35 -223 -46 -84 -8 -123 -16 -159 -35
-52 -26 -142 -46 -207 -46 -23 0 -57 -9 -76 -19 -75 -42 -105 -53 -174 -60
-52 -6 -83 -16 -118 -38 -35 -23 -64 -32 -115 -36 -42 -4 -77 -14 -93 -25 -45
-34 -84 -50 -140 -57 -41 -5 -63 -14 -85 -36 -20 -19 -48 -32 -83 -39 -58 -11
-82 -21 -102 -45 -7 -8 -37 -22 -66 -31 -30 -8 -67 -27 -83 -40 -16 -14 -56
-34 -88 -45 -32 -11 -68 -31 -81 -44 -12 -14 -43 -30 -68 -36 -30 -8 -53 -21
-66 -40 -14 -19 -39 -34 -73 -44 -28 -8 -60 -24 -71 -36 -10 -12 -40 -32 -66
-45 -26 -13 -50 -28 -53 -34 -4 -6 -31 -22 -61 -35 -30 -13 -57 -31 -60 -40
-4 -9 -23 -24 -44 -35 -21 -11 -49 -32 -62 -48 -14 -16 -35 -33 -47 -37 -12
-3 -42 -24 -67 -46 -25 -21 -49 -39 -54 -39 -9 0 -48 -35 -153 -137 -10 -10
-37 -36 -61 -58 -146 -135 -212 -203 -356 -365 -48 -55 -130 -171 -130 -186 0
-7 -13 -23 -29 -35 -17 -12 -35 -34 -41 -49 -6 -15 -24 -36 -39 -47 -15 -12
-33 -39 -40 -62 -6 -23 -27 -57 -46 -76 -19 -19 -35 -41 -35 -49 0 -8 -15 -32
-34 -55 -20 -24 -37 -57 -41 -81 -5 -27 -18 -50 -40 -71 -24 -23 -35 -44 -40
-76 -4 -30 -17 -56 -40 -81 -20 -23 -35 -52 -39 -78 -4 -23 -22 -64 -40 -92
-20 -32 -37 -75 -45 -118 -7 -41 -22 -79 -38 -100 -16 -22 -30 -60 -39 -105
-8 -43 -25 -90 -43 -118 -24 -39 -31 -63 -40 -155 -8 -78 -18 -125 -37 -165
-26 -58 -35 -116 -54 -331 -5 -69 -20 -159 -32 -200 -20 -70 -22 -96 -22 -370
0 -283 1 -300 27 -425 16 -74 32 -193 37 -275 9 -133 12 -150 41 -204 22 -43
33 -83 41 -149 9 -65 18 -99 36 -125 13 -19 32 -73 42 -119 13 -61 26 -92 48
-117 20 -23 31 -49 36 -83 4 -35 14 -57 31 -73 14 -13 33 -48 41 -78 10 -32
28 -66 49 -86 21 -22 35 -47 40 -73 4 -27 18 -51 41 -74 19 -18 36 -47 40 -66
3 -18 13 -38 21 -45 8 -6 27 -37 43 -67 16 -31 38 -62 49 -68 11 -7 30 -31 41
-53 12 -23 27 -43 35 -46 8 -3 26 -26 40 -51 32 -58 62 -93 210 -246 66 -68
145 -150 175 -183 100 -107 263 -246 335 -285 42 -23 87 -58 158 -122 23 -22
58 -45 77 -53 19 -8 44 -24 55 -34 11 -10 37 -26 58 -35 21 -8 47 -26 58 -39
11 -13 39 -29 62 -36 23 -7 58 -28 77 -45 19 -18 56 -38 82 -45 26 -7 57 -23
69 -36 13 -13 41 -29 63 -35 23 -6 60 -24 83 -40 24 -17 66 -37 95 -46 29 -8
67 -28 84 -43 20 -17 49 -30 78 -34 30 -5 59 -18 85 -40 28 -24 54 -35 89 -40
33 -4 62 -16 86 -35 32 -25 107 -51 150 -51 7 0 33 -14 59 -30 29 -20 68 -34
109 -41 40 -7 79 -21 108 -40 24 -16 54 -31 65 -33 118 -21 152 -30 165 -41
31 -26 77 -42 137 -48 43 -3 78 -14 115 -35 38 -22 77 -33 137 -41 47 -6 94
-18 105 -26 12 -8 30 -21 41 -29 11 -8 56 -18 100 -22 57 -4 101 -15 155 -39
49 -21 106 -36 165 -44 59 -8 99 -19 117 -32 42 -30 72 -39 168 -49 62 -6 110
-18 158 -39 51 -22 97 -34 166 -41 74 -8 108 -17 153 -40 46 -24 78 -32 153
-39 67 -7 112 -17 153 -36 38 -18 86 -29 145 -35 100 -10 133 -19 184 -50 29
-17 64 -24 150 -31 95 -8 122 -14 172 -40 42 -21 82 -33 140 -39 58 -7 97 -18
139 -40 41 -22 85 -34 152 -43 70 -10 103 -19 132 -39 26 -18 65 -31 120 -41
54 -9 95 -23 120 -40 22 -15 70 -32 115 -41 43 -8 95 -27 115 -40 21 -14 61
-30 88 -36 28 -6 67 -22 89 -36 21 -14 60 -32 87 -40 26 -8 61 -25 76 -38 15
-13 49 -32 75 -44 25 -11 51 -29 57 -41 6 -11 32 -29 57 -40 24 -11 61 -34 82
-51 20 -16 40 -30 45 -30 4 0 37 -30 72 -67 36 -38 78 -81 94 -98 16 -17 32
-46 35 -67 4 -20 22 -56 41 -78 24 -28 35 -52 35 -73 0 -18 7 -67 15 -110 14
-75 22 -327 11 -345 -3 -5 -12 -60 -20 -122 -14 -103 -18 -116 -45 -144 -20
-21 -34 -48 -40 -80 -5 -27 -19 -59 -33 -74 -14 -15 -33 -41 -43 -59 -10 -17
-28 -37 -40 -43 -12 -6 -29 -25 -39 -41 -9 -16 -21 -29 -25 -29 -4 0 -44 -36
-89 -79 -45 -44 -90 -82 -101 -86 -10 -3 -26 -16 -35 -29 -8 -14 -36 -31 -64
-40 -27 -9 -63 -32 -81 -50 -19 -19 -48 -37 -66 -40 -18 -4 -49 -20 -70 -36
-22 -17 -59 -34 -93 -41 -31 -6 -69 -20 -83 -30 -37 -26 -70 -37 -147 -49 -37
-6 -85 -21 -107 -34 -51 -30 -69 -34 -202 -45 -74 -7 -134 -19 -188 -38 l-80
-28 -575 0 -575 0 -105 28 c-82 23 -139 30 -266 37 -142 7 -171 12 -253 39
-53 19 -130 36 -184 42 -66 7 -110 19 -157 40 -46 22 -91 33 -155 40 -69 7
-104 17 -150 41 -39 20 -82 34 -123 39 -45 5 -77 16 -115 39 -38 24 -71 35
-122 41 -50 7 -84 18 -120 40 -27 17 -73 35 -102 39 -54 9 -86 22 -115 47 -9
8 -52 24 -95 34 -43 11 -94 31 -114 45 -20 14 -59 28 -87 33 -34 5 -62 18 -85
38 -21 19 -51 33 -78 37 -28 4 -55 17 -74 36 -18 17 -52 34 -87 43 -32 8 -72
27 -89 41 -17 14 -51 31 -76 38 -25 6 -60 23 -77 38 -17 15 -53 35 -81 44 -27
10 -63 30 -80 45 -16 15 -51 35 -77 45 -25 9 -49 23 -52 31 -5 13 -51 41 -177
106 -28 14 -62 38 -77 53 -27 28 -107 80 -173 113 -20 10 -52 34 -72 53 -65
64 -114 103 -144 115 -16 7 -50 33 -75 59 -47 48 -72 55 -121 37 -15 -6 -31
-25 -41 -51 -9 -23 -27 -51 -40 -63 -13 -12 -31 -46 -40 -74 -11 -34 -28 -60
-47 -73 -17 -13 -33 -36 -39 -59 -5 -21 -18 -49 -29 -62 -10 -13 -28 -42 -39
-65 -11 -23 -32 -48 -45 -57 -15 -10 -32 -37 -42 -67 -9 -27 -25 -56 -36 -64
-11 -7 -31 -36 -44 -65 -14 -28 -30 -51 -35 -51 -6 0 -24 -29 -39 -64 -16 -34
-36 -66 -44 -69 -9 -3 -25 -24 -37 -46 -11 -22 -29 -45 -40 -51 -12 -6 -31
-34 -44 -63 -12 -29 -31 -58 -40 -66 -10 -8 -26 -32 -37 -52 -10 -21 -28 -43
-39 -49 -11 -6 -29 -28 -39 -49 -11 -20 -27 -43 -36 -51 -9 -8 -26 -32 -37
-54 -26 -51 -103 -146 -199 -244 -20 -20 -44 -52 -54 -70 -29 -59 -83 -129
-187 -244 -72 -79 -104 -121 -123 -158 -19 -36 -136 -178 -199 -240 -30 -29
-36 -42 -36 -76 0 -45 14 -62 67 -83 18 -7 38 -20 45 -28 6 -8 33 -25 59 -39
26 -13 52 -31 57 -41 13 -22 105 -87 167 -117 28 -13 59 -34 70 -46 11 -12 43
-33 71 -45 28 -13 55 -28 59 -34 4 -7 30 -22 59 -35 28 -13 59 -34 68 -47 10
-16 36 -31 72 -42 32 -10 60 -26 66 -37 6 -11 27 -27 46 -35 20 -8 49 -26 65
-39 15 -13 51 -32 79 -41 31 -10 57 -27 70 -45 15 -21 31 -29 67 -35 35 -5 55
-15 77 -39 17 -18 53 -40 79 -49 26 -9 62 -28 78 -42 17 -14 37 -25 45 -25 19
0 73 -27 99 -50 11 -10 44 -25 73 -35 29 -9 66 -28 82 -42 17 -14 56 -32 87
-40 32 -8 72 -27 89 -42 21 -19 48 -30 81 -35 37 -5 57 -14 78 -36 17 -18 43
-32 64 -35 71 -12 81 -16 113 -44 21 -18 54 -33 89 -40 31 -7 79 -27 108 -45
35 -23 70 -36 107 -41 39 -5 64 -15 87 -34 23 -20 54 -32 114 -44 48 -9 95
-25 112 -38 18 -13 61 -27 113 -36 56 -9 95 -23 121 -40 25 -17 65 -31 118
-40 45 -8 105 -27 137 -43 38 -19 84 -33 137 -40 54 -7 99 -20 137 -40 44 -23
76 -31 140 -36 61 -4 100 -14 148 -36 46 -21 92 -33 155 -39 147 -16 200 -26
246 -47 67 -30 73 -31 234 -41 112 -7 171 -16 230 -35 100 -31 124 -34 370
-46 111 -6 249 -19 310 -30 173 -31 478 -43 990 -37 333 4 486 10 555 21 217
34 324 45 492 55 150 8 182 12 205 29 39 27 66 32 221 42 119 8 142 13 201 40
52 25 88 34 171 42 84 7 117 15 164 39 41 21 84 33 145 40 47 6 98 17 114 25
15 8 41 21 57 30 17 9 62 20 101 26 54 8 79 18 103 38 22 19 55 32 111 45 54
11 88 25 106 41 17 16 46 28 88 35 38 7 73 20 90 34 15 13 53 30 84 38 32 9
73 27 92 42 19 14 54 32 77 41 23 8 57 26 75 40 19 14 51 30 71 36 20 5 53 25
72 43 19 18 53 38 75 45 22 7 57 28 78 46 20 19 43 34 51 34 8 0 28 11 44 25
17 14 51 35 76 46 25 11 56 33 68 49 12 17 30 32 40 36 9 3 36 20 58 39 22 18
56 39 75 45 19 6 40 20 45 31 6 10 28 28 48 38 21 11 44 31 52 45 7 14 17 26
21 26 12 0 108 89 206 191 28 30 77 80 110 111 193 189 383 411 383 447 0 6
16 28 35 50 19 21 35 43 35 49 0 6 15 26 34 44 18 18 39 51 46 73 7 22 27 56
45 75 18 19 38 54 44 77 7 23 23 56 37 72 14 16 32 52 41 78 9 26 28 62 43 80
19 21 30 48 35 82 4 29 19 68 35 93 16 24 35 73 44 110 8 36 28 87 44 112 22
34 31 63 36 117 4 41 18 102 35 143 22 56 31 100 39 196 6 69 22 169 37 223
43 167 48 257 43 862 l-5 560 -25 60 c-31 71 -44 139 -53 259 -5 73 -12 98
-36 141 -22 40 -32 72 -36 125 -5 57 -11 78 -33 105 -25 32 -32 51 -60 161 -5
22 -19 49 -30 59 -11 10 -28 44 -37 74 -8 31 -28 71 -44 88 -25 29 -49 87 -49
120 0 6 -13 21 -29 33 -17 11 -33 31 -36 43 -4 12 -20 39 -36 59 -16 21 -38
57 -48 80 -11 24 -33 56 -50 71 -17 16 -31 34 -31 41 0 7 -12 23 -26 37 -14
13 -32 37 -40 52 -9 15 -23 36 -32 45 -9 10 -32 37 -51 61 -19 24 -62 71 -95
105 -34 33 -68 70 -76 82 -24 33 -202 190 -235 206 -16 9 -48 32 -70 52 -176
157 -198 175 -245 191 -23 8 -58 28 -76 45 -19 16 -39 30 -44 30 -6 0 -27 15
-47 34 -21 18 -56 39 -77 46 -22 7 -53 27 -70 44 -17 18 -49 38 -70 45 -22 8
-58 27 -79 42 -22 16 -46 29 -52 29 -7 0 -35 15 -62 34 -27 18 -75 41 -108 51
-33 9 -69 25 -80 35 -29 26 -54 37 -103 45 -26 4 -58 20 -83 41 -28 23 -51 34
-73 34 -40 0 -92 17 -126 41 -14 10 -54 26 -90 35 -36 8 -82 27 -103 42 -24
16 -60 28 -100 34 -37 5 -90 22 -132 43 -38 19 -99 40 -135 45 -40 7 -80 22
-104 38 -28 19 -62 30 -123 39 -60 8 -97 20 -122 37 -39 27 -104 45 -162 46
-22 0 -62 13 -95 31 -43 22 -87 35 -159 46 -72 10 -111 21 -138 40 -22 14 -65
29 -100 34 -140 22 -169 29 -196 49 -34 23 -110 40 -186 40 -39 0 -67 8 -110
31 -45 24 -78 33 -154 41 -71 7 -115 18 -171 43 -54 24 -97 35 -155 39 -58 5
-100 16 -155 40 -44 20 -100 36 -135 39 -33 4 -104 22 -158 42 -54 19 -113 35
-132 35 -58 0 -139 21 -175 46 -24 16 -61 27 -115 34 -50 7 -102 22 -140 40
-33 17 -98 36 -144 44 -56 10 -95 23 -120 41 -22 15 -64 30 -102 37 -61 10
-90 21 -152 54 -15 8 -55 20 -90 25 -34 6 -71 18 -82 28 -27 25 -53 37 -97 45
-20 4 -55 22 -77 40 -24 20 -57 37 -81 41 -23 4 -57 21 -79 40 -22 18 -59 37
-83 43 -24 6 -55 23 -68 38 -14 14 -45 35 -70 46 -25 11 -55 28 -66 39 -12 11
-37 28 -55 37 -19 9 -40 29 -47 45 -7 15 -17 27 -22 27 -8 0 -83 66 -115 102
-5 6 -29 29 -51 52 -23 22 -45 51 -48 62 -4 12 -18 33 -31 47 -14 13 -34 50
-44 80 -11 31 -32 76 -46 101 -23 39 -29 68 -42 193 -13 125 -13 172 -3 303
12 155 18 178 50 215 9 11 25 42 35 68 10 26 28 56 40 65 12 10 30 32 38 49
15 28 60 86 107 137 39 42 109 100 148 123 23 14 47 33 52 43 5 10 28 25 52
34 23 10 54 28 70 41 15 13 51 31 80 41 29 9 69 28 89 41 19 13 68 30 108 37
46 9 81 22 95 35 27 25 66 37 156 46 36 4 80 15 98 26 54 31 130 47 252 53 63
3 142 13 175 22 111 30 130 33 282 44 183 13 609 -2 717 -26 126 -27 171 -32
317 -39 173 -8 233 -17 313 -49 41 -17 98 -28 173 -35 87 -8 124 -16 164 -37
35 -17 84 -30 153 -39 65 -9 122 -23 159 -40 32 -15 90 -31 129 -36 52 -6 84
-17 119 -39 32 -21 70 -35 116 -42 46 -7 81 -19 108 -39 22 -15 70 -35 108
-43 42 -10 82 -27 105 -45 23 -18 55 -31 85 -36 32 -4 59 -16 82 -36 19 -17
50 -33 72 -36 46 -7 82 -24 106 -51 11 -11 38 -24 60 -28 29 -4 52 -17 75 -41
22 -24 49 -39 84 -49 29 -7 59 -22 68 -33 8 -11 38 -28 66 -39 29 -11 67 -31
86 -46 19 -14 40 -26 46 -26 6 0 31 -18 56 -39 25 -22 59 -42 75 -46 17 -4 43
-20 58 -36 16 -17 45 -39 66 -50 21 -11 41 -27 44 -35 3 -9 29 -26 57 -38 28
-13 64 -37 80 -55 33 -35 51 -38 101 -17 27 12 40 27 60 72 14 32 34 64 45 71
11 8 27 29 36 46 9 18 29 43 44 57 17 17 29 41 33 67 5 32 15 48 42 69 19 14
35 32 35 39 0 8 15 33 34 58 18 24 39 60 45 80 7 20 25 47 41 59 15 13 37 42
49 65 11 23 26 45 32 49 6 3 22 31 35 60 13 29 33 59 45 66 11 7 31 34 45 60
13 26 29 50 35 54 6 3 22 30 34 59 13 28 35 59 50 69 14 9 35 37 45 61 10 23
24 46 30 50 7 4 23 31 36 61 13 29 32 58 44 64 11 6 31 33 45 59 13 27 28 51
33 53 5 1 21 27 36 56 15 29 34 56 42 59 8 3 23 22 33 42 11 20 29 45 41 56
13 11 33 43 45 70 13 28 34 61 48 73 14 13 31 37 37 53 7 15 23 35 36 44 14 9
36 39 50 68 40 85 80 148 106 171 14 11 35 38 47 59 13 20 26 37 31 37 5 0 21
25 35 56 15 32 40 68 56 81 16 14 29 31 29 38 0 7 14 27 30 44 l30 30 -48 49
c-27 28 -71 61 -99 75 -27 14 -55 33 -63 42 -7 9 -27 22 -44 29 -17 7 -42 24
-56 38 -14 14 -43 31 -65 38 -22 7 -54 25 -70 41 -29 28 -72 52 -202 118 -33
17 -64 38 -67 46 -3 8 -29 21 -59 30 -34 10 -65 28 -86 49 -20 21 -47 37 -70
41 -20 4 -51 21 -71 39 -22 21 -54 38 -84 45 -28 7 -64 25 -82 40 -18 17 -49
31 -74 35 -26 4 -56 18 -77 36 -23 20 -48 31 -84 36 -36 5 -62 16 -91 40 -22
19 -45 34 -51 34 -30 0 -89 23 -115 45 -15 13 -57 31 -93 40 -35 9 -84 30
-108 46 -24 16 -60 31 -80 34 -69 11 -78 15 -114 43 -25 20 -56 32 -106 41
-49 9 -81 21 -106 41 -26 20 -53 31 -93 36 -68 8 -96 18 -142 49 -20 13 -59
26 -90 30 -30 4 -89 22 -130 40 -52 23 -101 37 -160 43 -63 7 -100 18 -144 41
-43 23 -71 31 -110 31 -64 0 -151 22 -199 50 -27 16 -65 24 -144 31 -75 7
-126 18 -168 35 -78 33 -120 43 -176 44 -65 0 -223 28 -294 52 -45 15 -104 23
-235 29 -171 9 -253 20 -395 55 -63 16 -146 18 -780 19 -390 1 -759 -1 -820
-5z"/>
<path d="M33223 24935 l-22 -15 0 -3473 c-1 -5227 -11 -10343 -21 -10512 l-9
-150 32 -33 32 -32 1060 -6 c583 -3 1321 -3 1641 1 568 7 581 8 593 28 10 16
14 483 16 2305 2 2244 3 2286 22 2301 17 14 130 15 1100 11 l1082 -5 55 -54
c31 -29 56 -61 56 -71 0 -9 14 -35 31 -56 17 -21 33 -51 36 -67 3 -16 22 -41
43 -58 23 -18 42 -45 49 -68 6 -21 24 -55 41 -76 16 -21 30 -42 30 -47 0 -4
17 -27 38 -51 21 -23 44 -61 52 -85 7 -24 22 -48 32 -53 10 -5 29 -32 43 -59
14 -28 30 -50 36 -50 5 0 23 -29 39 -65 16 -36 36 -68 45 -71 9 -4 27 -28 40
-53 13 -26 30 -53 38 -60 9 -7 23 -34 33 -62 10 -27 29 -56 42 -65 13 -9 30
-30 37 -49 8 -18 26 -46 39 -63 14 -16 34 -50 45 -75 11 -25 29 -51 40 -57 12
-6 31 -30 42 -53 12 -23 32 -54 45 -69 12 -15 25 -41 29 -58 4 -17 20 -40 37
-53 16 -12 40 -43 53 -68 13 -25 30 -51 39 -58 8 -7 20 -29 27 -49 6 -20 29
-56 50 -79 22 -24 39 -49 39 -56 0 -8 10 -22 21 -33 12 -10 32 -43 45 -71 13
-29 33 -58 45 -65 11 -7 30 -30 41 -52 11 -21 33 -57 49 -79 16 -22 29 -47 29
-55 0 -8 15 -29 34 -47 18 -17 42 -47 51 -66 10 -19 28 -47 40 -64 13 -16 30
-46 38 -66 8 -20 28 -46 45 -58 17 -12 33 -34 37 -50 3 -16 17 -44 31 -62 14
-19 33 -53 44 -76 10 -23 27 -46 38 -52 12 -6 28 -33 37 -63 9 -29 27 -62 40
-73 12 -11 29 -33 38 -50 8 -16 27 -41 41 -54 14 -13 32 -45 41 -72 9 -27 27
-54 40 -63 14 -9 33 -33 44 -54 10 -20 30 -47 44 -60 14 -13 30 -43 37 -67 7
-26 22 -51 36 -60 13 -8 31 -30 40 -48 9 -17 29 -46 44 -64 15 -17 34 -49 41
-70 6 -21 25 -50 41 -64 15 -15 28 -34 28 -43 0 -8 14 -31 30 -50 17 -18 37
-51 46 -72 9 -22 34 -58 55 -81 22 -24 39 -48 39 -54 0 -7 12 -27 26 -46 14
-18 34 -53 45 -77 10 -24 30 -51 43 -60 16 -10 31 -36 43 -72 9 -30 25 -60 35
-65 10 -5 25 -24 34 -42 9 -18 29 -45 44 -62 16 -16 37 -52 47 -79 15 -40 27
-55 68 -80 l50 -31 325 -7 c179 -4 1005 -7 1835 -6 831 0 1522 -3 1538 -7 39
-10 57 8 57 62 0 36 -6 49 -33 77 -18 18 -41 53 -51 79 -9 25 -28 53 -42 61
-13 9 -24 23 -24 31 0 9 -17 34 -38 58 -21 23 -44 57 -52 76 -7 18 -28 51 -47
73 -18 22 -33 45 -33 52 0 7 -16 27 -35 46 -19 19 -35 39 -35 45 0 7 -17 36
-39 66 -21 30 -41 64 -45 77 -4 12 -23 34 -42 48 -19 15 -34 32 -34 39 0 8
-16 35 -36 61 -20 26 -42 61 -49 78 -7 17 -27 41 -44 54 -17 12 -31 29 -31 37
0 8 -15 32 -33 52 -18 21 -40 54 -47 73 -7 19 -30 53 -51 76 -20 23 -40 50
-43 62 -4 11 -18 27 -31 36 -14 9 -25 23 -25 32 0 23 -25 67 -59 103 -17 18
-31 39 -31 47 0 7 -16 25 -35 39 -19 15 -37 37 -41 48 -4 12 -21 42 -39 67
-17 25 -37 59 -44 77 -7 18 -24 39 -37 48 -13 8 -33 34 -45 58 -12 23 -30 51
-40 62 -10 11 -25 37 -34 57 -8 21 -27 45 -41 54 -14 9 -32 31 -41 48 -8 17
-26 42 -39 56 -13 14 -30 45 -38 68 -9 24 -30 58 -48 76 -46 47 -93 117 -109
161 -8 21 -29 50 -46 64 -18 14 -33 31 -33 38 0 7 -14 28 -30 47 -17 18 -39
53 -49 77 -11 24 -33 57 -50 73 -16 15 -32 39 -35 51 -3 13 -19 33 -35 44 -19
14 -36 40 -46 72 -10 28 -23 53 -31 56 -8 3 -26 24 -39 48 -14 23 -35 51 -46
61 -12 10 -30 39 -41 63 -10 24 -32 59 -48 78 -17 18 -30 40 -30 48 0 8 -16
26 -34 40 -19 15 -40 42 -46 61 -7 19 -23 47 -36 63 -13 16 -31 45 -39 65 -8
20 -27 43 -41 52 -14 9 -32 31 -41 48 -9 17 -28 45 -43 63 -16 17 -31 45 -35
62 -4 18 -21 42 -40 57 -19 14 -39 40 -45 58 -6 18 -21 43 -35 56 -13 12 -27
36 -30 52 -4 16 -27 52 -51 79 -24 27 -44 54 -44 58 0 5 -15 28 -34 50 -19 23
-37 54 -41 71 -4 16 -20 39 -36 51 -16 11 -39 39 -50 60 -11 22 -26 42 -34 45
-8 3 -22 27 -31 52 -10 26 -35 66 -56 89 -21 24 -38 47 -38 52 0 6 -13 25 -28
43 -16 18 -34 49 -42 68 -7 19 -31 54 -52 77 -21 24 -38 48 -38 55 0 7 -12 25
-27 40 -16 14 -38 44 -50 66 l-22 39 26 40 c34 54 68 72 153 82 52 7 80 16
105 35 19 15 68 35 111 46 49 12 86 28 103 44 16 15 48 30 81 37 36 7 65 21
85 40 20 18 48 32 79 38 31 6 59 19 79 39 18 17 52 36 77 42 25 6 56 22 70 35
14 13 50 33 82 45 31 11 62 28 69 36 7 9 32 25 55 36 24 11 50 30 58 43 9 13
37 30 66 40 27 9 55 25 60 36 6 10 25 26 43 35 18 9 48 33 69 53 53 52 107 94
156 121 23 13 42 27 42 31 0 5 19 21 43 37 23 17 84 72 134 123 51 52 100 101
109 109 10 8 23 22 31 30 7 8 52 55 98 104 47 49 85 93 85 98 0 4 15 25 34 45
18 21 41 52 49 70 9 17 27 40 40 50 13 10 30 30 37 43 7 14 27 39 45 55 18 17
38 48 43 68 6 21 24 53 41 73 17 19 31 41 31 49 0 8 15 25 33 39 22 17 38 41
46 68 7 24 23 54 36 68 13 14 33 46 44 73 11 26 29 57 40 69 11 11 28 44 37
72 9 28 27 64 40 79 13 15 33 58 44 95 11 37 29 78 40 91 11 13 27 49 36 80 9
31 27 72 41 93 13 20 33 69 43 110 10 41 30 96 44 122 14 27 26 65 26 85 1 57
16 109 45 152 22 31 29 56 37 130 5 50 16 110 24 133 47 122 52 148 63 292 7
98 18 173 31 215 37 112 41 205 38 725 l-3 499 -28 82 c-19 56 -32 126 -42
223 -11 117 -19 151 -41 193 -18 35 -31 83 -41 151 -9 68 -21 113 -37 141 -14
23 -32 78 -40 124 -11 58 -24 92 -41 113 -14 16 -27 42 -30 56 -14 69 -26 100
-45 117 -11 10 -27 43 -36 72 -9 29 -27 66 -40 83 -14 16 -32 51 -41 77 -9 26
-29 63 -44 80 -15 18 -34 51 -40 74 -7 22 -23 48 -36 57 -13 8 -33 33 -45 56
-11 23 -30 52 -43 66 -12 14 -29 43 -36 64 -8 21 -28 50 -45 63 -18 13 -37 37
-44 54 -7 16 -21 34 -31 40 -11 5 -25 25 -33 43 -8 19 -43 68 -78 110 -34 42
-73 91 -86 109 -13 18 -31 37 -41 42 -10 6 -40 34 -67 63 -27 30 -80 85 -119
123 -38 38 -77 76 -85 85 -8 10 -22 23 -30 31 -8 7 -49 45 -90 83 -41 39 -95
83 -120 97 -45 27 -108 73 -170 125 -106 89 -132 107 -158 113 -16 3 -40 17
-53 31 -13 14 -40 34 -60 44 -20 11 -43 30 -52 43 -9 14 -34 29 -60 37 -25 6
-58 25 -73 41 -15 16 -49 36 -76 45 -27 9 -62 27 -77 40 -16 13 -48 31 -71 39
-23 8 -53 23 -68 33 -15 11 -57 29 -94 41 -36 12 -72 29 -79 37 -19 23 -43 33
-100 44 -32 6 -63 21 -84 38 -24 22 -50 32 -106 41 -51 8 -88 21 -117 40 -26
18 -63 32 -95 36 -28 4 -81 22 -117 40 -47 24 -88 36 -149 44 -62 8 -94 18
-121 36 -37 25 -92 38 -213 50 -39 4 -84 16 -110 29 -59 32 -84 36 -234 46
-111 7 -141 12 -190 35 -66 30 -173 44 -343 45 -125 0 -268 16 -330 36 -25 8
-102 19 -170 24 -77 6 -1459 10 -3620 10 -3113 0 -3498 -2 -3517 -15z m6507
-2925 c211 -6 283 -12 355 -28 50 -12 139 -26 198 -31 123 -12 173 -24 220
-51 18 -11 66 -24 107 -30 41 -6 85 -18 98 -28 61 -43 78 -51 124 -57 36 -5
58 -16 83 -40 23 -21 50 -35 77 -39 27 -4 55 -19 80 -41 21 -19 44 -35 51 -35
6 0 38 -18 71 -40 32 -22 64 -40 71 -40 6 0 28 -17 47 -37 20 -21 55 -54 79
-73 58 -48 153 -133 161 -145 8 -12 54 -62 154 -170 51 -55 78 -92 85 -120 6
-22 24 -54 40 -72 15 -18 33 -50 39 -72 5 -21 23 -55 40 -76 16 -20 32 -54 35
-74 3 -20 8 -48 10 -64 3 -15 18 -56 35 -90 26 -55 31 -79 40 -202 5 -77 14
-188 19 -246 5 -59 7 -117 5 -130 -1 -13 -8 -107 -14 -209 -16 -262 -25 -323
-54 -368 -14 -20 -29 -64 -35 -96 -6 -32 -20 -73 -31 -90 -11 -17 -35 -63 -54
-102 -18 -39 -39 -75 -45 -78 -6 -4 -18 -23 -26 -43 -9 -20 -34 -57 -56 -82
-23 -25 -58 -66 -78 -90 -32 -40 -169 -177 -246 -249 -16 -16 -43 -37 -60 -47
-16 -11 -36 -28 -44 -38 -7 -10 -34 -28 -60 -38 -25 -11 -57 -31 -71 -43 -14
-13 -41 -29 -60 -35 -19 -6 -46 -22 -60 -35 -14 -14 -50 -32 -81 -40 -31 -9
-71 -28 -89 -41 -39 -29 -89 -45 -141 -45 -22 0 -62 -14 -103 -35 -62 -33 -75
-36 -200 -45 -87 -6 -171 -20 -238 -37 l-103 -27 -1755 -6 c-1549 -4 -1758 -3
-1778 10 l-23 15 1 1949 c0 1797 1 1951 17 1968 15 17 75 18 1457 17 793 0
1560 -4 1706 -9z"/>
</g>
</svg>
